<svg xmlns="http://www.w3.org/2000/svg" viewBox="0 0 64 64">
  <defs>
    <linearGradient id="g" x1="0%" y1="0%" x2="100%" y2="100%">
      <stop offset="0%" stop-color="#8d5a1b"/>
      <stop offset="40%" stop-color="#e7aa51"/>
      <stop offset="70%" stop-color="#ffe499"/>
      <stop offset="100%" stop-color="#ac7031"/>
    </linearGradient>
    <clipPath id="cc"><circle cx="32" cy="32" r="25"/></clipPath>
  </defs>
  <rect width="64" height="64" rx="13" fill="#0c0d0f"/>
  <g clip-path="url(#cc)">
    <g fill="url(#g)">
      <path d="M32,32 L32,7 A25,25 0 0,1 53.7,19.5 Z" opacity="1"/>
      <path d="M32,32 L53.7,19.5 A25,25 0 0,1 53.7,44.5 Z" opacity="0.85"/>
      <path d="M32,32 L53.7,44.5 A25,25 0 0,1 32,57 Z" opacity="1"/>
      <path d="M32,32 L32,57 A25,25 0 0,1 10.3,44.5 Z" opacity="0.85"/>
      <path d="M32,32 L10.3,44.5 A25,25 0 0,1 10.3,19.5 Z" opacity="1"/>
      <path d="M32,32 L10.3,19.5 A25,25 0 0,1 32,7 Z" opacity="0.85"/>
    </g>
    <circle cx="32" cy="32" r="13" fill="#0c0d0f"/>
    <circle cx="32" cy="32" r="10" fill="url(#g)"/>
    <circle cx="32" cy="32" r="5.5" fill="#0c0d0f"/>
  </g>
  <circle cx="32" cy="32" r="25" fill="none" stroke="url(#g)" stroke-width="1.2"/>
</svg>